# xmcd
#
# Track frame offsets:
#	150
#	19361
#	31419
#	45623
#	57952
#	69379
#	81625
#	96313
#	106371
#	120802
#	131307
#	143357
#	158999
#	170967
#
# Disc length: 2503 seconds
#
# Revision: 0
# Processed by: cddbd v1.5.2PL0 Copyright (c) Steve Scherf et al.
# Submitted via: EasyCDDAExtractor 8.0.2.1
#
DISCID=bc09c50e
DTITLE=Wenche - Dance The Night Away
DYEAR=2007
DGENRE=Country
TTITLE0=Dance the night away
TTITLE1=Love's gonna live here again
TTITLE2=Walkin' on sunshine
TTITLE3=There's a kind of hush
TTITLE4=Why'd you come in here lookin' like that
TTITLE5=Mi vida loca
TTITLE6=Mama he's crazy
TTITLE7=Gettin' good at gettin' over you
TTITLE8=Here comes my baby
TTITLE9=Your good girl's gonna go bad
TTITLE10=Honky tonk saturday night
TTITLE11=Hole me
TTITLE12=Little bitty
TTITLE13=If tomorrow never comes
EXTD=
EXTT0=
EXTT1=
EXTT2=
EXTT3=
EXTT4=
EXTT5=
EXTT6=
EXTT7=
EXTT8=
EXTT9=
EXTT10=
EXTT11=
EXTT12=
EXTT13=
PLAYORDER=
